<svg width="1674" height="1461" viewBox="0 0 1674 1461" fill="none" xmlns="http://www.w3.org/2000/svg">
<path d="M-621.275 827.745C-279.813 910.264 -641.236 1154.7 -412.505 1382.26C-202.886 1590.81 284.804 1312.31 241.364 1831.52C211.623 2187 298.641 2338.23 569.357 2468.7" stroke="#56CCF2" stroke-width="1.18846"/>
<path d="M-602.019 812.094C-260.557 894.613 -621.98 1139.04 -393.249 1366.61C-183.63 1575.16 304.06 1296.66 260.62 1815.87C230.879 2171.34 317.897 2322.58 588.613 2453.05" stroke="#56CCF2" stroke-width="1.18846"/>
<path d="M-582.762 796.444C-241.3 878.962 -602.723 1123.39 -373.992 1350.96C-164.373 1559.51 323.317 1281.01 279.877 1800.22C250.136 2155.69 337.154 2306.93 607.87 2437.4" stroke="#56CCF2" stroke-width="1.18846"/>
<path d="M-563.506 780.793C-222.044 863.312 -583.467 1107.74 -354.736 1335.31C-145.117 1543.86 342.573 1265.36 299.133 1784.57C269.392 2140.04 356.41 2291.28 627.126 2421.75" stroke="#56CCF2" stroke-width="1.18846"/>
<path d="M-544.249 765.142C-202.787 847.661 -564.21 1092.09 -335.479 1319.66C-125.86 1528.21 361.829 1249.71 318.39 1768.92C288.649 2124.39 375.667 2275.63 646.383 2406.1" stroke="#56CCF2" stroke-width="1.18846"/>
<path d="M-524.993 749.491C-183.531 832.01 -544.954 1076.44 -316.223 1304.01C-106.604 1512.55 381.086 1234.06 337.646 1753.27C307.905 2108.74 394.923 2259.98 665.639 2390.45" stroke="#56CCF2" stroke-width="1.18846"/>
<path d="M-505.736 733.841C-164.274 816.359 -525.697 1060.79 -296.966 1288.35C-87.3475 1496.9 400.342 1218.41 356.902 1737.62C327.161 2093.09 414.179 2244.33 684.896 2374.8" stroke="#56CCF2" stroke-width="1.18846"/>
<path d="M-486.48 718.19C-145.018 800.709 -506.441 1045.14 -277.71 1272.7C-68.0911 1481.25 419.599 1202.76 376.159 1721.97C346.418 2077.44 433.436 2228.68 704.152 2359.15" stroke="#56CCF2" stroke-width="1.18846"/>
<path d="M-467.223 702.539C-125.761 785.058 -487.184 1029.49 -258.453 1257.05C-48.8344 1465.6 438.855 1187.11 395.416 1706.32C365.675 2061.79 452.693 2213.03 723.409 2343.5" stroke="#56CCF2" stroke-width="1.18846"/>
<path d="M-447.967 686.888C-106.505 769.407 -467.928 1013.84 -239.197 1241.4C-29.578 1449.95 458.112 1171.46 414.672 1690.66C384.931 2046.14 471.949 2197.37 742.665 2327.85" stroke="#56CCF2" stroke-width="1.18846"/>
<path d="M-428.71 671.238C-87.2484 753.756 -448.671 998.188 -219.941 1225.75C-10.3217 1434.3 477.368 1155.81 433.928 1675.01C404.187 2030.49 491.205 2181.72 761.921 2312.2" stroke="#56CCF2" stroke-width="1.18846"/>
<path d="M-409.454 655.587C-67.9917 738.105 -429.415 982.537 -200.684 1210.1C8.93505 1418.65 496.625 1140.15 453.185 1659.36C423.444 2014.84 510.462 2166.07 781.178 2296.54" stroke="#56CCF2" stroke-width="1.18846"/>
<path d="M-390.197 639.936C-48.7354 722.455 -410.158 966.886 -181.428 1194.45C28.1914 1403 515.881 1124.5 472.441 1643.71C442.7 1999.19 529.718 2150.42 800.434 2280.89" stroke="#56CCF2" stroke-width="1.18846"/>
<path d="M-370.941 624.285C-29.4792 706.804 -390.902 951.236 -162.171 1178.8C47.4476 1387.35 535.137 1108.85 491.698 1628.06C461.957 1983.54 548.975 2134.77 819.691 2265.24" stroke="#56CCF2" stroke-width="1.18846"/>
<path d="M-351.685 608.635C-10.2228 691.153 -371.646 935.585 -142.915 1163.15C66.704 1371.7 554.394 1093.2 510.954 1612.41C481.213 1967.88 568.231 2119.12 838.947 2249.59" stroke="#56CCF2" stroke-width="1.18846"/>
<path d="M-332.428 592.984C9.03403 675.502 -352.389 919.934 -123.658 1147.5C85.9608 1356.05 573.651 1077.55 530.211 1596.76C500.47 1952.23 587.488 2103.47 858.204 2233.94" stroke="#56CCF2" stroke-width="1.18846"/>
<path d="M-313.172 577.333C28.2901 659.852 -333.133 904.283 -104.402 1131.85C105.217 1340.4 592.907 1061.9 549.467 1581.11C519.726 1936.58 606.744 2087.82 877.46 2218.29" stroke="#56CCF2" stroke-width="1.18846"/>
<path d="M-293.915 561.682C47.5466 644.201 -313.876 888.633 -85.1455 1116.2C124.473 1324.75 612.163 1046.25 568.723 1565.46C538.982 1920.93 626 2072.17 896.716 2202.64" stroke="#56CCF2" stroke-width="1.18846"/>
<path d="M-274.659 546.031C66.8033 628.55 -294.62 872.982 -65.8888 1100.55C143.73 1309.09 631.42 1030.6 587.98 1549.81C558.239 1905.28 645.257 2056.52 915.973 2186.99" stroke="#56CCF2" stroke-width="1.18846"/>
<path d="M-255.403 530.381C86.0594 612.899 -275.364 857.331 -46.6327 1084.89C162.986 1293.44 650.676 1014.95 607.236 1534.16C577.495 1889.63 664.513 2040.87 935.229 2171.34" stroke="#56CCF2" stroke-width="1.18846"/>
</svg>
